# 3ds Max Wavefront OBJ Exporter v0.97b - (c)2007 guruware
# File Created: 15.01.2013 04:26:47

#
# object Box001
#

v  -0.1776924 -0.1089091 0.0000000
v  -0.1776924 0.1182687 0.0000000
v  0.1664912 0.1182687 0.0000000
v  0.1664912 -0.1089091 0.0000000
v  -0.1776924 -0.1089091 1.4107622
v  0.1664912 -0.1089091 1.4107622
v  0.1664912 0.1182687 1.4107622
v  -0.1776924 0.1182687 1.4107622
v  0.1664912 -0.1089091 0.1502615
v  -0.1776924 -0.1089091 0.1502616
v  0.1664912 0.1182687 0.1502616
v  -0.1776924 0.1182687 0.1502616
v  0.1664912 -0.1089091 0.4507847
v  -0.1776924 -0.1089091 0.4507847
v  -0.1776924 -0.1089091 0.3005231
v  0.1664912 -0.1089091 0.3005231
v  0.1664912 0.1182687 0.4507847
v  0.1664912 0.1182687 0.3005231
v  -0.1776924 0.1182687 0.4507846
v  -0.1776924 0.1182687 0.3005231
v  0.1664912 -0.1089091 0.6010462
v  0.1664912 -0.1089092 0.7359988
v  -0.1776924 -0.1089092 0.7359988
v  -0.1776924 -0.1089091 0.6010462
v  0.1664912 0.1182687 0.6010462
v  0.1664912 0.1182687 0.7359988
v  -0.1776924 0.1182687 0.6010462
v  -0.1776924 0.1182687 0.7359988
v  0.1664912 -0.1089091 0.8709515
v  0.1664912 -0.1089091 1.0059042
v  -0.1776924 -0.1089091 1.0059042
v  -0.1776924 -0.1089091 0.8709515
v  0.1664912 0.1182687 0.8709515
v  0.1664912 0.1182687 1.0059042
v  -0.1776924 0.1182687 0.8709515
v  -0.1776924 0.1182687 1.0059042
v  0.1664912 -0.1089091 1.1408569
v  0.1664912 -0.1089091 1.2758094
v  -0.1776924 -0.1089091 1.2758094
v  -0.1776924 -0.1089091 1.1408569
v  0.1664912 0.1182687 1.1408569
v  0.1664912 0.1182687 1.2758095
v  -0.1776924 0.1182687 1.1408569
v  -0.1776924 0.1182687 1.2758095
# 44 vertices

vn -0.5773502 -0.5773503 -0.5773503
vn -0.5773503 0.5773503 -0.5773503
vn 0.5773503 0.5773503 -0.5773503
vn 0.5773502 -0.5773503 -0.5773503
vn -0.5773503 -0.5773503 0.5773503
vn 0.5773503 -0.5773503 0.5773503
vn 0.5773503 0.5773502 0.5773503
vn -0.5773503 0.5773503 0.5773503
vn 0.7071068 -0.7071068 -0.0000000
vn -0.7071069 -0.7071067 -0.0000000
vn 0.7071068 0.7071068 -0.0000001
vn -0.7071068 0.7071068 -0.0000001
vn 0.7071068 -0.7071068 0.0000000
vn -0.7071068 -0.7071068 0.0000000
vn 0.7071068 -0.7071068 -0.0000001
vn 0.7071068 0.7071068 -0.0000000
vn 0.7071068 0.7071067 -0.0000000
vn -0.7071067 0.7071068 0.0000001
vn -0.7071068 0.7071068 0.0000000
vn -0.7071067 -0.7071068 -0.0000000
vn -0.7071068 -0.7071067 -0.0000000
vn 0.7071067 0.7071068 0.0000000
vn 0.7071068 0.7071068 0.0000000
vn 0.7071067 0.7071068 -0.0000000
vn -0.7071067 0.7071068 -0.0000001
vn -0.7071066 -0.7071069 0.0000000
vn -0.7071068 -0.7071067 0.0000000
vn -0.7071068 0.7071067 -0.0000000
# 28 vertex normals

vt 0.7505008 0.1204810 2.2223663
vt 1.2494991 0.1204811 2.2223663
vt 1.2494992 0.8795190 2.2223663
vt 0.7505009 0.8795189 2.2223663
vt 0.5249343 0.4622235 2.2223663
vt 0.5249343 0.5377765 2.2223663
vt 0.4750657 0.5377765 2.2223663
vt 0.4750657 0.4622235 2.2223663
vt 0.7442536 0.8700540 1.7907677
vt 0.7442536 0.1299459 1.7907677
vt 1.2557464 0.8700541 1.7907677
vt 1.7442536 0.8700540 1.7907677
vt 1.7505009 0.8795189 2.2223663
vt 0.2494991 0.1204811 2.2223663
vt 0.2557463 0.1299459 1.7907677
vt 0.2557464 0.8700541 1.7907677
vt 0.2494992 0.8795190 2.2223663
vt -0.2494992 0.1204810 2.2223663
vt -0.2557464 0.1299459 1.7907677
vt -0.7442536 0.1299459 1.7907677
vt -0.7505009 0.1204811 2.2223663
vt 0.7157512 0.8268716 0.9907449
vt 0.7157511 0.1731283 0.9907449
vt 0.7341347 0.1452764 1.3739493
vt 0.7341348 0.8547236 1.3739493
vt 0.2842489 0.8268717 0.9907449
vt 0.2658653 0.8547236 1.3739493
vt 0.2842488 0.1731283 0.9907449
vt 0.2658652 0.1452764 1.3739493
vt 0.6787866 0.7708688 0.6988316
vt 0.6247937 0.6890674 0.6303891
vt 0.6247936 0.3109325 0.6303891
vt 0.6787865 0.2291312 0.6988316
vt 0.3212135 0.7708688 0.6988316
vt 0.3752064 0.6890675 0.6303891
vt 0.3212135 0.2291313 0.6988316
vt 0.3752063 0.3109325 0.6303891
vt 0.5784023 0.6187826 0.7996927
vt 0.5527234 0.5798781 1.1021433
vt 0.5527234 0.4201219 1.1021433
vt 0.5784023 0.3812173 0.7996927
vt 0.4215977 0.6187826 0.7996927
vt 0.4472766 0.5798781 1.1021433
vt 0.4215977 0.3812174 0.7996927
vt 0.4472766 0.4201219 1.1021433
vt 0.5387716 0.5587406 1.4570601
vt 0.5304111 0.5460739 1.8342358
vt 0.5304110 0.4539260 1.8342358
vt 0.5387716 0.4412594 1.4570601
vt 0.4612284 0.5587406 1.4570601
vt 0.4695890 0.5460740 1.8342358
vt 0.4612284 0.4412594 1.4570601
vt 0.4695890 0.4539261 1.8342358
# 53 texture coords

g Box001
f 1/1/1 2/2/2 3/3/3 
f 3/3/3 4/4/4 1/1/1 
f 5/5/5 6/6/6 7/7/7 
f 7/7/7 8/8/8 5/5/5 
f 4/4/4 9/9/9 10/10/10 
f 10/10/10 1/1/1 4/4/4 
f 3/3/3 11/11/11 9/12/9 
f 9/12/9 4/13/4 3/3/3 
f 2/14/2 12/15/12 11/16/11 
f 11/16/11 3/17/3 2/14/2 
f 1/18/1 10/19/10 12/20/12 
f 12/20/12 2/21/2 1/18/1 
f 13/22/13 14/23/14 15/24/14 
f 15/24/14 16/25/15 13/22/13 
f 17/26/16 13/22/13 16/25/15 
f 16/25/15 18/27/17 17/26/16 
f 19/28/18 17/26/16 18/27/17 
f 18/27/17 20/29/19 19/28/18 
f 14/23/14 19/28/18 20/29/19 
f 20/29/19 15/24/14 14/23/14 
f 21/30/9 22/31/9 23/32/20 
f 23/32/20 24/33/21 21/30/9 
f 25/34/16 26/35/22 22/31/9 
f 22/31/9 21/30/9 25/34/16 
f 27/36/12 28/37/19 26/35/22 
f 26/35/22 25/34/16 27/36/12 
f 24/33/21 23/32/20 28/37/19 
f 28/37/19 27/36/12 24/33/21 
f 29/38/13 30/39/13 31/40/14 
f 31/40/14 32/41/14 29/38/13 
f 33/42/23 34/43/24 30/39/13 
f 30/39/13 29/38/13 33/42/23 
f 35/44/19 36/45/25 34/43/24 
f 34/43/24 33/42/23 35/44/19 
f 32/41/14 31/40/14 36/45/25 
f 36/45/25 35/44/19 32/41/14 
f 37/46/13 38/47/13 39/48/26 
f 39/48/26 40/49/27 37/46/13 
f 41/50/17 42/51/16 38/47/13 
f 38/47/13 37/46/13 41/50/17 
f 43/52/28 44/53/19 42/51/16 
f 42/51/16 41/50/17 43/52/28 
f 40/49/27 39/48/26 44/53/19 
f 44/53/19 43/52/28 40/49/27 
f 16/25/15 15/24/14 10/10/10 
f 10/10/10 9/9/9 16/25/15 
f 18/27/17 16/25/15 9/9/9 
f 9/9/9 11/16/11 18/27/17 
f 20/29/19 18/27/17 11/16/11 
f 11/16/11 12/15/12 20/29/19 
f 15/24/14 20/29/19 12/15/12 
f 12/15/12 10/10/10 15/24/14 
f 21/30/9 24/33/21 14/23/14 
f 14/23/14 13/22/13 21/30/9 
f 25/34/16 21/30/9 13/22/13 
f 13/22/13 17/26/16 25/34/16 
f 27/36/12 25/34/16 17/26/16 
f 17/26/16 19/28/18 27/36/12 
f 24/33/21 27/36/12 19/28/18 
f 19/28/18 14/23/14 24/33/21 
f 29/38/13 32/41/14 23/32/20 
f 23/32/20 22/31/9 29/38/13 
f 33/42/23 29/38/13 22/31/9 
f 22/31/9 26/35/22 33/42/23 
f 35/44/19 33/42/23 26/35/22 
f 26/35/22 28/37/19 35/44/19 
f 32/41/14 35/44/19 28/37/19 
f 28/37/19 23/32/20 32/41/14 
f 37/46/13 40/49/27 31/40/14 
f 31/40/14 30/39/13 37/46/13 
f 41/50/17 37/46/13 30/39/13 
f 30/39/13 34/43/24 41/50/17 
f 43/52/28 41/50/17 34/43/24 
f 34/43/24 36/45/25 43/52/28 
f 40/49/27 43/52/28 36/45/25 
f 36/45/25 31/40/14 40/49/27 
f 6/6/6 5/5/5 39/48/26 
f 39/48/26 38/47/13 6/6/6 
f 7/7/7 6/6/6 38/47/13 
f 38/47/13 42/51/16 7/7/7 
f 8/8/8 7/7/7 42/51/16 
f 42/51/16 44/53/19 8/8/8 
f 5/5/5 8/8/8 44/53/19 
f 44/53/19 39/48/26 5/5/5 
# 84 faces

